<?xml version="1.0"?>
<svg version="1.1" xmlns="http://www.w3.org/2000/svg" xmlns:xlink="http://www.w3.org/1999/xlink" width="640" height="480">
    <desc iVinci="yes" version="4.6" gridStep="20" showGrid="no" snapToGrid="no" codePlatform="0"/>
    <g id="Layer1" name="Layer 1" opacity="1">
        <g id="Shape1">
            <desc shapeID="1" type="0" basicInfo-basicType="1" basicInfo-roundedRectRadius="12" basicInfo-polygonSides="6" basicInfo-starPoints="5" bounding="rect(-319.543,-241.445,639.085,482.891)" text="" font-familyName="Helvetica" font-pixelSize="20" font-bold="0" font-underline="0" font-alignment="1" strokeStyle="0" markerStart="0" markerEnd="0" shadowEnabled="0" shadowOffsetX="0" shadowOffsetY="2" shadowBlur="4" shadowOpacity="160" blurEnabled="0" blurRadius="4" transform="matrix(1,0,0,1,318.946,239.657)" pers-center="0,0" pers-size="0,0" pers-start="0,0" pers-end="0,0" locked="0" mesh="" flag=""/>
            <path id="shapePath1" d="M-0.596161,-1.78848 L638.489,-1.78848 L638.489,481.102 L-0.596161,481.102 L-0.596161,-1.78848 Z" style="stroke:none;fill-rule:evenodd;fill:url(#linearGradientFill1);fill-opacity:1;"/><defs><linearGradient id="linearGradientFill1" gradientUnits="userSpaceOnUse" x1="320" y1="5.96161" x2="318.946" y2="480"><stop offset="0" stop-color="#2484d4" stop-opacity="1"/><stop offset="0.46895" stop-color="#89c9ff" stop-opacity="1"/></linearGradient></defs>
        </g>
        <g id="Shape2">
            <desc shapeID="2" type="0" basicInfo-basicType="0" basicInfo-roundedRectRadius="12" basicInfo-polygonSides="6" basicInfo-starPoints="5" bounding="rect(-1296,-762.499,2592,1525)" text="" font-familyName="" font-pixelSize="20" font-bold="0" font-underline="0" font-alignment="1" strokeStyle="0" markerStart="0" markerEnd="0" shadowEnabled="0" shadowOffsetX="0" shadowOffsetY="2" shadowBlur="4" shadowOpacity="160" blurEnabled="0" blurRadius="4" transform="matrix(0.247144,0,0,0.341638,318.191,246.339)" pers-center="0,0" pers-size="0,0" pers-start="0,0" pers-end="0,0" locked="0" mesh="" flag=""/>
            <path id="shapePath2" d="M-2.10715,369.557 C-2.10715,259.99 -2.0448,232.263 -1.79822,232.217 C-1.62833,232.186 -1.06802,232.066 -0.553162,231.951 C0.139038,231.796 0.364471,231.856 0.311859,232.18 C0.272766,232.42 0.465607,232.784 0.74054,232.987 C1.0231,233.196 1.20322,233.617 1.15494,233.955 C1.06107,234.611 1.94366,234.824 2.21786,234.211 C2.30185,234.023 2.25284,233.869 2.10886,233.869 C1.96494,233.869 1.84714,233.715 1.84714,233.528 C1.84714,233.34 2.24387,233.186 2.72879,233.186 C3.49158,233.186 3.58975,233.276 3.45691,233.855 C3.33279,234.395 3.45816,234.579 4.112,234.813 C4.67746,235.016 4.96347,235.354 5.0632,235.938 C5.25809,237.079 5.90552,237.007 6.0032,235.834 C6.0462,235.317 6.21307,234.894 6.37393,234.893 C6.57233,234.893 6.66644,235.69 6.66644,237.37 C6.66644,239.62 6.71188,239.848 7.16074,239.848 C7.48798,239.848 7.68216,239.583 7.73538,239.064 C7.79547,238.478 7.93054,238.331 8.27069,238.48 C8.52087,238.59 8.79449,238.526 8.87872,238.337 C8.97971,238.111 9.24005,238.126 9.64203,238.379 C9.97757,238.59 10.3057,238.689 10.3713,238.598 C10.5737,238.319 10.5917,236.137 10.3993,235.206 C10.2293,234.383 10.2658,234.332 10.9271,234.466 C11.3682,234.556 11.7555,234.414 11.9489,234.092 C12.2246,233.633 12.315,233.649 12.738,234.234 C13.3428,235.07 13.3506,235.562 12.7555,235.347 C12.1654,235.134 11.8411,236.557 12.3268,237.228 C12.5995,237.605 12.7501,237.608 13.1692,237.246 C13.5627,236.907 13.8103,236.896 14.2509,237.199 C15.3314,237.942 18.4897,238.247 19.8886,237.743 C20.5903,237.491 20.769,237.248 20.8353,236.456 C20.8801,235.919 20.7188,234.971 20.4768,234.35 C20.0782,233.327 20.0728,233.162 20.4194,232.605 C20.6299,232.267 20.8711,231.721 20.9555,231.392 C21.1435,230.659 21.5164,230.617 21.708,231.307 C21.7863,231.589 21.9649,231.819 22.1051,231.819 C22.4323,231.819 22.4387,230.56 22.1129,230.282 C21.6847,229.916 21.8443,229.428 22.3922,229.428 C22.8699,229.428 22.907,229.286 22.7933,227.891 C22.6443,226.063 22.2633,225.328 21.4648,225.328 C21.1416,225.328 20.8772,225.174 20.8772,224.987 C20.8772,224.799 21.0916,224.645 21.3535,224.645 C21.6156,224.645 22.0452,224.267 22.3082,223.804 C22.7283,223.066 22.8422,223.02 23.2436,223.426 C23.6443,223.831 23.6573,223.96 23.3486,224.474 C23.0411,224.986 23.05,225.115 23.4197,225.488 C23.9158,225.99 23.9744,227.63 23.5429,228.939 C23.2747,229.753 23.3068,229.921 23.8442,230.523 C24.3494,231.088 24.6642,231.16 25.8125,230.968 C26.5643,230.842 27.4392,230.509 27.7569,230.227 C28.6093,229.471 28.6936,229.929 27.9324,231.179 L27.2647,232.276 L28.5275,233.135 C29.6953,233.929 29.8205,233.952 30.1935,233.436 C30.5086,233.001 30.5333,232.773 30.3063,232.394 C30.1465,232.128 30.0346,231.621 30.0577,231.267 C30.17,229.55 30.0126,228.745 29.5652,228.745 C28.9516,228.745 27.5501,227.756 27.5501,227.323 C27.5501,227.11 27.9187,227.062 28.5087,227.2 C29.4134,227.411 29.4821,227.365 29.7315,226.376 C30.0162,225.247 30.2662,225.119 31.0529,225.701 C31.4058,225.963 31.6356,225.967 31.8174,225.715 C32.1674,225.231 34.1999,225.632 34.8922,226.322 C35.2308,226.659 35.3885,227.092 35.308,227.463 C35.2366,227.792 35.2969,228.061 35.442,228.061 C35.5871,228.061 35.7058,227.848 35.7058,227.588 C35.7058,227.012 37.0966,226.671 37.8492,227.062 C38.5654,227.434 39.097,226.641 38.551,226.015 C38.3454,225.779 38.1772,225.278 38.1772,224.902 C38.1772,224.324 38.0622,224.25 37.4358,224.423 C36.8773,224.577 36.6944,224.502 36.6944,224.118 C36.6944,223.767 36.4724,223.633 35.9776,223.685 C35.0898,223.778 34.4222,223.058 34.5199,222.113 C34.5791,221.54 34.7399,221.421 35.3351,221.51 C35.7429,221.571 36.2711,221.864 36.509,222.161 C37.0713,222.863 37.0713,222.412 36.509,221.603 C36.1062,221.023 35.6507,220.797 33.911,220.314 C33.0245,220.068 32.83,219.591 33.3327,218.896 C33.6649,218.437 33.8231,218.413 34.2236,218.758 C34.995,219.424 35.2118,219.266 35.0509,218.154 C34.9399,217.387 34.994,217.129 35.2659,217.129 C35.797,217.129 36.5832,218.465 36.4935,219.216 C36.4352,219.703 36.5652,219.862 37.0207,219.862 C37.4174,219.862 37.6697,220.097 37.7545,220.545 C37.9281,221.463 38.6715,221.437 38.6715,220.513 C38.6715,220.085 38.473,219.726 38.1772,219.619 C37.9054,219.521 37.683,219.317 37.683,219.167 C37.683,219.016 37.6189,218.662 37.5405,218.38 C37.4438,218.032 37.5766,217.83 37.9535,217.754 C38.3048,217.683 38.7199,217.116 39.0829,216.211 C39.6078,214.904 39.6232,214.735 39.2632,214.238 C38.9316,213.779 38.9217,213.607 39.2003,213.143 C39.4173,212.781 39.5629,211.304 39.6237,208.85 L39.7163,205.109 L40.4297,204.765 C40.822,204.576 41.1569,204.283 41.1739,204.113 C41.1909,203.944 41.232,203.382 41.2652,202.865 C41.2985,202.349 41.4458,200.116 41.5927,197.903 C41.7395,195.691 41.7954,193.131 41.7169,192.214 C41.5755,190.564 41.8185,186.518 42.0406,186.825 C42.104,186.913 42.1993,189.578 42.2523,192.747 C42.3052,195.916 42.3553,198.567 42.3636,198.637 C42.3719,198.707 42.5504,198.567 42.7604,198.326 C43.0171,198.032 43.0933,197.581 42.993,196.95 C42.9065,196.405 42.9608,195.913 43.1226,195.774 C43.3121,195.612 43.347,194.837 43.2319,193.35 C43.114,191.829 43.1464,191.164 43.3385,191.164 C43.4902,191.164 43.6144,190.855 43.6144,190.476 C43.6144,190.098 43.7534,189.478 43.9233,189.099 C44.178,188.532 44.1671,188.353 43.8615,188.084 C43.5745,187.832 43.6442,187.757 44.1705,187.753 C44.5443,187.75 44.8369,187.633 44.8209,187.492 C44.8047,187.351 44.8065,187.005 44.8246,186.723 C44.854,186.268 44.8843,186.268 45.0973,186.723 C45.302,187.161 45.3374,187.149 45.3406,186.638 C45.3427,186.309 45.5047,186.04 45.7005,186.04 C46.2167,186.04 46.4217,185.403 46.0858,184.844 C45.6938,184.191 45.9835,183.648 46.724,183.648 C47.3167,183.648 47.3222,183.626 46.9281,182.794 C46.5964,182.094 46.5864,181.94 46.8726,181.94 C47.0648,181.94 47.6835,181.327 48.2476,180.578 C48.8117,179.828 49.3412,179.367 49.4242,179.553 C49.6765,180.117 50.2346,179.93 50.1981,179.292 C50.1738,178.87 50.3448,178.695 50.7816,178.695 C51.2886,178.695 51.4113,178.878 51.4656,179.719 C51.5696,181.331 52.0598,183.648 52.2966,183.648 C52.4148,183.648 52.5116,183.437 52.5116,183.178 C52.5116,182.919 52.6873,182.505 52.9022,182.259 C53.1295,181.998 53.2473,181.482 53.1839,181.024 C53.0529,180.077 53.6601,179.179 53.8846,179.987 C53.9634,180.271 54.0027,180.711 53.9721,180.965 C53.9012,181.555 54.2495,182.719 54.5943,183.045 C54.7725,183.214 54.7582,183.298 54.5505,183.301 C54.3806,183.304 54.2416,183.614 54.2416,183.99 C54.2416,184.366 54.3257,184.673 54.4284,184.673 C54.5312,184.673 54.7701,185.173 54.9595,185.784 C55.4549,187.381 55.7647,187.869 55.9789,187.39 C56.0856,187.151 56.2128,187.327 56.3065,187.843 C56.5193,189.015 57.346,189.371 60.7909,189.774 C64.8245,190.246 68.0983,190.797 68.3988,191.053 C68.5629,191.194 68.5886,194.534 68.4743,200.866 C68.3264,209.068 68.3544,210.566 68.6668,211.15 C68.9899,211.754 68.9893,211.9 68.6621,212.401 C68.141,213.2 68.3218,214.869 68.9466,215.029 C69.2185,215.098 69.5338,215.378 69.6474,215.651 C69.7609,215.924 70.0946,216.276 70.3888,216.433 C70.8814,216.696 70.8883,216.739 70.4755,216.969 C70.1615,217.144 69.9167,217.001 69.6583,216.491 C69.1756,215.538 68.5836,215.559 68.5466,216.531 C68.3502,221.692 68.3792,223.654 68.6503,223.53 C68.8133,223.456 68.9822,223.062 69.0256,222.654 C69.0759,222.181 69.2808,221.912 69.5894,221.912 C70.0843,221.912 70.1529,221.762 70.4135,220.118 C70.5343,219.357 70.6982,219.179 71.2786,219.179 C71.6725,219.179 72.0356,219.009 72.0856,218.802 C72.1356,218.594 72.3185,219.191 72.4921,220.127 L72.8076,221.829 L74.0697,221.997 C75.4375,222.178 75.9902,222.818 75.9902,224.221 C75.9902,224.883 76.0832,224.992 76.4964,224.811 C77.0474,224.569 77.7202,225.145 77.7202,225.859 C77.7202,226.106 77.4978,226.405 77.2259,226.524 C76.5058,226.84 76.6213,227.377 77.4113,227.386 L78.0909,227.393 L77.4731,228.066 C76.9495,228.637 76.9118,228.791 77.2259,229.078 C77.4298,229.265 77.9959,229.42 78.4838,229.423 C79.1921,229.427 79.4276,229.256 79.6524,228.574 C79.864,227.932 80.1348,227.71 80.7424,227.681 C82.2075,227.61 82.8624,227.43 83.6202,226.888 C84.7709,226.065 85.084,226.212 85.412,227.725 C85.6502,228.824 85.8001,229.057 86.1653,228.897 C86.416,228.787 87.2454,229.092 88.0084,229.575 C88.7714,230.058 89.5372,230.453 89.7101,230.453 C90.1318,230.453 90.3009,231.153 90.1475,232.262 C89.9482,233.704 90.2123,234.318 90.8337,233.858 C91.276,233.531 91.3262,233.279 91.1829,232.106 C91.0418,230.952 91.0965,230.658 91.5308,230.238 C91.8143,229.963 92.1385,229.246 92.2514,228.644 C92.5089,227.27 93.0336,227.241 93.5279,228.574 C93.737,229.137 93.9313,229.656 93.9596,229.727 C94.0316,229.906 95.2644,229.888 95.3963,229.705 C95.5434,229.502 96.4787,189.329 96.8743,166.225 C96.9531,161.621 97.0785,157.278 97.1528,156.573 C97.2992,155.187 97.7365,154.807 97.7426,156.061 C97.7447,156.484 97.8508,157.058 97.9783,157.337 C98.1624,157.739 98.2851,157.598 98.5745,156.653 C98.7749,155.999 99.1693,155.27 99.451,155.033 C99.7327,154.797 99.9632,154.297 99.9632,153.923 C99.9632,153.29 100.13,153.243 102.373,153.246 C105.86,153.252 106.636,153.478 106.636,154.491 C106.636,155.055 106.833,155.413 107.27,155.642 C108.15,156.105 110.029,156.06 110.248,155.571 C110.418,155.19 110.543,150.216 110.98,126.509 C111.08,121.107 111.241,116.687 111.339,116.687 C111.59,116.687 111.917,118.71 111.864,119.933 L111.819,120.958 L112.199,120.025 C112.538,119.191 112.711,119.095 113.82,119.13 C114.802,119.161 115.189,119.003 115.671,118.377 C116.118,117.797 116.198,117.516 115.972,117.323 C115.792,117.169 115.58,117.267 115.463,117.557 C115.352,117.83 115.011,118.054 114.705,118.054 C114.399,118.054 114.034,118.213 113.894,118.407 C113.754,118.601 113.459,118.664 113.239,118.547 C112.881,118.357 112.852,117.415 112.965,109.397 C113.115,98.7431 113.112,98.5125 112.806,98.0905 C112.41,97.5422 112.531,97.3094 113.326,97.0895 C113.917,96.9262 114.177,96.5768 114.5,95.5129 C114.809,94.4958 115.058,94.1451 115.471,94.1425 C115.777,94.1406 116.029,94.3312 116.031,94.5661 C116.034,94.8531 116.095,94.873 116.217,94.6266 C116.561,93.9309 117.311,93.7965 118.089,94.2908 C118.518,94.5636 119.248,94.9158 119.71,95.0736 C120.747,95.4277 121.273,96.8268 120.477,97.1146 C119.845,97.343 119.832,97.8971 120.458,97.8971 C121.334,97.8971 121.783,98.8939 121.602,100.435 C121.512,101.2 121.445,102.057 121.453,102.338 C121.461,102.62 121.462,103.436 121.455,104.151 C121.446,105.091 121.6,105.641 122.01,106.141 C122.322,106.521 122.46,106.753 122.318,106.657 C121.727,106.259 121.479,107.112 121.336,110.036 C121.028,116.337 121.169,118.209 121.975,118.5 C122.452,118.673 122.529,118.383 122.783,115.491 C122.833,114.928 122.89,116.878 122.91,119.825 C122.934,123.19 122.842,125.541 122.664,126.145 C122.256,127.526 121.817,154.132 122.192,154.756 C122.343,155.008 123.707,155.478 125.225,155.801 C126.742,156.124 128.143,156.473 128.338,156.576 C128.643,156.738 128.68,159.763 128.601,177.839 C128.523,195.609 128.563,199.005 128.857,199.496 C129.048,199.816 129.37,199.991 129.571,199.884 C129.774,199.776 130.079,199.971 130.257,200.322 C130.433,200.669 131.907,201.764 133.533,202.754 C136.159,204.354 136.504,204.663 136.628,205.524 C136.744,206.321 136.913,206.512 137.581,206.601 L138.394,206.709 L138.42,223.62 C138.434,232.921 138.462,240.714 138.481,240.938 C138.501,241.161 138.935,241.392 139.444,241.45 C140.292,241.547 140.383,241.659 140.514,242.752 C140.759,244.796 140.961,243.19 141.09,238.185 C141.157,235.58 141.245,233.405 141.286,233.353 C141.326,233.301 142.305,233.15 143.46,233.018 C144.616,232.886 146.173,232.678 146.92,232.555 L148.28,232.332 L148.403,227.856 C148.486,224.853 148.635,223.201 148.856,222.834 C149.061,222.494 149.667,222.249 150.462,222.185 C151.705,222.085 151.742,222.052 151.817,220.973 C151.878,220.102 152.188,219.534 153.261,218.326 C154.012,217.48 154.7,216.779 154.79,216.769 C154.879,216.758 155.453,216.678 156.065,216.591 C157.509,216.384 157.738,216.388 158.849,216.647 C160.286,216.981 160.513,216.507 160.513,213.178 C160.513,210.627 160.57,210.28 161.063,209.803 C161.365,209.51 162.042,209.271 162.567,209.271 C163.391,209.271 163.559,209.137 163.789,208.293 C164.164,206.921 164.881,206.417 166.342,206.498 C167.234,206.548 167.696,206.412 167.924,206.031 C168.19,205.588 168.578,205.534 170.126,205.723 C171.16,205.848 172.284,206.101 172.623,206.284 C172.963,206.467 173.697,206.676 174.253,206.747 L175.266,206.877 L175.426,202.523 C175.515,200.128 175.588,195.372 175.588,191.955 C175.589,188.538 175.695,185.359 175.823,184.891 C175.981,184.318 176.281,184.003 176.74,183.929 C177.649,183.783 177.759,183.117 177.789,177.579 L177.813,173.046 L178.617,172.564 C179.058,172.299 179.62,171.996 179.864,171.891 C180.226,171.736 180.278,171.476 180.146,170.5 C180.039,169.712 180.077,169.3 180.257,169.3 C180.408,169.3 180.532,169.69 180.532,170.167 C180.532,171.789 181.474,173.563 184.589,177.811 C186.3,180.144 187.7,182.219 187.7,182.423 C187.701,182.785 189.532,183.99 190.081,183.99 C190.233,183.99 190.498,183.755 190.67,183.469 C190.949,183.004 191.033,183.01 191.445,183.526 C191.717,183.866 192.696,184.257 193.819,184.474 L195.731,184.844 L195.634,202.182 L195.536,219.52 L196.252,219.557 C196.645,219.576 197.282,219.564 197.666,219.528 C198.051,219.492 198.585,219.738 198.854,220.075 C199.213,220.524 199.914,220.736 201.492,220.874 C203.911,221.084 204.258,221.276 204.258,222.403 C204.258,223.794 204.685,223.931 209.038,223.933 C212.327,223.935 213.204,223.839 213.308,223.465 C213.38,223.206 213.527,221.944 213.635,220.66 L213.831,218.325 L213.868,220.374 C213.899,222.127 214.305,224.133 214.422,223.108 C214.484,222.563 214.55,221.488 214.596,220.289 C214.663,218.508 215.132,219.011 215.132,220.865 C215.132,223.446 215.441,224.265 216.402,224.227 C216.965,224.205 217.308,224.415 217.557,224.933 C217.84,225.522 218.155,225.67 219.133,225.67 C221.276,225.67 221.311,225.749 221.311,230.636 C221.311,234.574 221.346,234.894 221.775,234.894 C222.03,234.894 222.38,234.658 222.553,234.37 C222.833,233.904 222.924,233.918 223.387,234.502 C223.672,234.862 224.15,235.26 224.449,235.385 C224.748,235.51 225.056,235.89 225.134,236.23 C225.243,236.703 225.635,236.9 226.802,237.069 C227.641,237.19 228.417,237.165 228.526,237.013 C228.636,236.862 228.846,229.136 228.992,219.844 C229.212,205.877 229.321,202.862 229.618,202.438 C229.921,202.008 231.18,201.916 237.509,201.865 C241.65,201.831 245.633,201.701 246.358,201.576 C247.43,201.391 247.927,201.495 249.014,202.132 C249.749,202.562 250.435,203.077 250.538,203.275 C250.641,203.472 250.652,210.898 250.561,219.777 C250.448,230.79 250.476,235.919 250.65,235.919 C250.819,235.919 250.967,231.015 251.087,221.485 C251.198,212.602 251.364,206.886 251.519,206.624 C251.657,206.389 252.197,206.196 252.719,206.196 C253.814,206.196 254.181,205.566 254.181,203.681 C254.181,201.773 254.642,201.414 257.102,201.409 C259.647,201.403 260.295,201.207 260.484,200.384 C260.666,199.589 262.741,199.215 266.291,199.334 C270.884,199.489 271.102,199.524 271.185,200.124 C271.332,201.174 272.344,201.691 274.713,201.924 C275.994,202.05 277.254,202.236 277.513,202.336 C277.969,202.513 277.979,202.925 277.836,215.282 C277.755,222.302 277.774,228.119 277.877,228.207 C278.044,228.35 278.43,221.93 278.768,213.371 C279.146,203.815 279.618,199.694 280.443,198.747 C280.624,198.54 282.412,198.357 284.706,198.311 C286.879,198.268 288.796,198.163 288.966,198.078 C289.171,197.976 289.275,197.166 289.275,195.683 C289.275,193.01 289.566,193.051 289.613,195.731 C289.631,196.759 289.737,197.727 289.849,197.884 C289.961,198.04 291.795,198.399 293.926,198.68 L297.8,199.193 L298.145,200.559 C298.335,201.311 298.557,203.615 298.64,205.68 L298.79,209.435 L300.149,209.692 C300.897,209.833 301.768,210.033 302.084,210.136 L302.659,210.322 L302.596,231.469 C302.531,253.631 302.534,253.696 303.578,253.677 C303.799,253.672 304.258,253.374 304.598,253.013 L305.216,252.357 L305.389,237.426 C305.484,229.214 305.619,222.287 305.69,222.033 C305.774,221.731 306.239,221.57 307.031,221.57 C307.763,221.57 308.357,221.382 308.528,221.098 C308.712,220.793 308.84,218.436 308.891,214.432 C308.934,211.026 309.046,208.134 309.139,208.004 C309.233,207.875 309.297,210.717 309.283,214.32 C309.269,217.923 309.328,221.028 309.414,221.22 C309.5,221.413 310.113,221.57 310.777,221.57 C311.44,221.57 312.059,221.74 312.152,221.947 C312.244,222.154 312.306,223.653 312.288,225.278 C312.25,228.837 312.426,229.399 313.322,228.588 C313.856,228.103 314.164,228.071 315.358,228.377 C316.132,228.574 316.891,228.624 317.046,228.486 C317.5,228.082 318.532,228.134 318.932,228.581 C319.136,228.809 319.94,229.082 320.718,229.186 C321.496,229.291 322.247,229.474 322.386,229.593 C322.548,229.732 322.64,232.822 322.64,238.16 L322.64,246.51 L323.721,246.51 C324.316,246.51 324.911,246.318 325.043,246.083 C325.477,245.31 326.347,237.755 326.347,234.758 C326.347,231.849 326.353,231.819 326.966,231.819 C327.585,231.819 327.586,231.822 327.429,234.296 C327.343,235.658 327.175,236.919 327.057,237.098 C326.612,237.767 326.835,239.362 327.482,240.13 C328.148,240.922 328.273,241.831 327.964,243.635 C327.737,244.965 328.29,245.827 329.372,245.827 C329.794,245.827 330.35,246.091 330.608,246.414 C330.965,246.861 331.565,247.012 333.103,247.043 C334.217,247.065 335.385,247.274 335.7,247.506 C336.014,247.739 336.432,247.843 336.629,247.739 C336.826,247.634 337.176,247.853 337.406,248.225 C337.775,248.82 338.138,248.901 340.427,248.897 C343.76,248.891 344.094,248.762 344.264,247.412 C344.338,246.822 344.479,242.653 344.579,238.147 L344.759,229.955 L345.5,229.641 C345.908,229.468 346.592,229.118 347.021,228.865 C347.449,228.611 348.082,228.403 348.426,228.403 C348.981,228.403 349.073,228.224 349.223,226.846 C349.34,225.759 349.564,225.133 349.964,224.77 C350.28,224.485 350.572,223.846 350.614,223.351 C350.7,222.34 351.269,222.001 352.976,221.946 L354.027,221.912 L354.08,213.285 C354.109,208.541 354.137,203.63 354.142,202.372 C354.146,201.114 354.262,199.945 354.397,199.773 C354.616,199.496 356.228,199.041 359.34,198.378 C360.271,198.18 360.336,198.09 360.453,196.828 C360.52,196.091 360.701,195.431 360.855,195.362 C361.259,195.178 361.48,196.232 361.193,196.975 C361.058,197.324 360.947,197.68 360.947,197.764 C360.947,198.202 362.644,198.399 368.562,198.651 C372.233,198.808 375.172,199.076 375.31,199.266 C375.464,199.48 375.572,207.115 375.603,220.062 L375.652,240.519 L377.528,240.497 C378.561,240.485 379.572,240.386 379.776,240.278 C380.065,240.125 380.186,239.145 380.319,235.88 C380.414,233.569 380.551,231.595 380.625,231.493 C380.699,231.39 381.758,231.222 382.98,231.119 C384.529,230.987 385.267,230.782 385.42,230.439 C385.608,230.018 385.751,230.037 386.4,230.567 C386.964,231.028 387.933,231.246 390.179,231.418 L393.199,231.649 L393.349,236.09 C393.432,238.533 393.515,240.582 393.534,240.643 C393.554,240.705 393.931,240.721 394.373,240.679 C396.054,240.519 398.018,240.716 398.018,241.044 C398.018,241.231 397.546,241.404 396.968,241.428 L395.918,241.471 L397.03,241.744 C397.641,241.895 398.602,242.029 399.164,242.043 C399.962,242.063 400.272,242.25 400.58,242.9 C400.838,243.444 401.255,243.77 401.782,243.84 L402.59,243.947 L402.658,250.695 C402.698,254.805 402.819,257.442 402.966,257.442 C403.099,257.442 403.208,256.986 403.208,256.429 C403.208,255.218 403.767,254.711 405.107,254.704 C406.545,254.697 407.106,254.382 407.268,253.491 C407.349,253.044 407.637,252.515 407.907,252.315 C408.413,251.941 408.59,250.951 408.151,250.951 C408.015,250.951 407.904,250.644 407.904,250.268 C407.904,249.892 408.069,249.585 408.27,249.585 C408.66,249.585 408.71,249.363 409.143,245.656 C409.535,242.308 410.134,237.89 410.274,237.314 C410.635,235.829 411.185,239.532 412.46,252.025 C412.601,253.4 412.71,253.634 413.288,253.786 C413.654,253.883 414.142,253.823 414.373,253.652 C414.603,253.482 415.188,253.343 415.673,253.343 C416.437,253.343 416.554,253.451 416.554,254.159 C416.554,254.82 416.717,255.017 417.412,255.197 C417.884,255.32 418.366,255.656 418.483,255.945 C418.661,256.384 418.767,256.321 419.125,255.567 C419.461,254.857 419.49,254.559 419.259,254.174 C419.03,253.792 419.04,253.559 419.304,253.116 C419.569,252.673 419.575,252.516 419.334,252.404 C419.165,252.325 419.026,251.974 419.026,251.623 C419.026,251.272 418.843,250.844 418.62,250.671 C418.397,250.499 418.294,250.181 418.39,249.966 C418.486,249.75 418.656,249.651 418.766,249.745 C418.877,249.84 419.245,249.615 419.585,249.245 C419.925,248.876 420.494,248.42 420.85,248.233 C421.258,248.019 421.497,247.634 421.497,247.191 C421.497,246.804 421.636,246.418 421.806,246.333 C422.734,245.865 427.539,245.215 430.47,245.161 C430.988,245.151 431.352,245.009 431.278,244.844 C431.123,244.497 431.827,241.468 432.122,241.217 C432.231,241.123 432.618,241.261 432.982,241.522 C433.762,242.082 435.51,241.874 436.113,241.15 C436.383,240.826 437.004,240.688 437.97,240.736 C439.342,240.804 440.026,240.516 441.021,239.451 C441.225,239.233 442.03,239.079 442.81,239.11 C444.11,239.16 444.315,239.281 445.281,240.565 C446.33,241.96 446.345,241.967 448.699,242.175 C450,242.29 451.239,242.476 451.453,242.59 C451.723,242.733 451.894,243.467 452.012,244.995 C452.188,247.269 452.429,247.687 452.884,246.51 C453.03,246.134 453.099,245.827 453.039,245.827 C452.978,245.827 453.082,244.943 453.268,243.862 C453.455,242.782 453.625,240.283 453.646,238.31 C453.667,236.337 453.755,234.262 453.841,233.698 C453.983,232.778 454.106,232.663 455.048,232.568 C456.035,232.47 456.097,232.402 456.097,231.426 C456.097,230.676 456.234,230.339 456.591,230.21 C456.902,230.098 457.086,229.744 457.086,229.259 C457.086,228.131 457.661,227.651 458.865,227.772 L459.928,227.879 L460.001,225.583 C460.062,223.657 460.158,223.224 460.593,222.902 C461.269,222.401 461.611,223.149 461.781,225.499 L461.905,227.207 L463.703,227.429 C465.799,227.688 466.23,228.065 466.23,229.64 C466.23,230.275 466.341,230.794 466.477,230.794 C466.613,230.794 466.724,230.564 466.724,230.282 C466.724,229.902 467.013,229.77 467.836,229.77 C468.784,229.77 468.949,229.871 468.949,230.453 C468.949,231.699 470.449,233.186 471.706,233.186 C472.19,233.186 472.204,233.019 472.122,228.113 C472.063,224.567 471.94,222.877 471.712,222.499 C471.441,222.047 471.453,221.818 471.787,221.114 C472.417,219.784 472.681,214.679 472.638,204.659 L472.599,195.435 L473.647,192.36 C474.224,190.669 475.138,187.995 475.677,186.418 C476.418,184.251 476.621,183.299 476.508,182.519 C476.411,181.847 476.484,181.296 476.717,180.94 C476.991,180.521 477.113,178.8 477.239,173.565 C477.33,169.81 477.464,166.601 477.536,166.435 C477.858,165.702 478.324,167.964 478.337,170.324 C478.345,171.734 478.462,173.502 478.597,174.253 C478.732,175.005 478.883,176.895 478.931,178.453 C478.98,180.011 479.077,181.365 479.147,181.461 C479.262,181.62 484.301,182.305 486.125,182.41 L486.866,182.453 L486.932,180.061 C486.967,178.746 487.098,177.362 487.221,176.986 C487.345,176.611 487.513,174.805 487.594,172.973 C487.732,169.847 488.071,167.933 488.486,167.933 C488.87,167.933 488.951,169.115 488.839,173.083 C488.77,175.548 488.834,177.77 488.998,178.628 C489.149,179.416 489.258,180.522 489.241,181.086 C489.224,181.65 489.202,182.572 489.192,183.136 C489.181,183.767 489.987,186.458 491.29,190.139 L493.405,196.118 L493.207,204.83 C493.087,210.113 493.101,214.147 493.243,215.079 C493.371,215.925 493.497,221.92 493.522,228.403 C493.586,244.454 493.558,243.777 494.157,243.777 C494.685,243.777 494.847,242.899 494.361,242.675 C494.201,242.601 494.153,242.355 494.254,242.128 C494.504,241.568 494.899,241.958 494.899,242.765 C494.899,243.526 496.166,244.159 496.329,243.481 C496.389,243.233 496.756,243.477 497.278,244.11 C497.746,244.678 498.347,245.143 498.614,245.143 C498.882,245.143 499.1,245.283 499.1,245.455 C499.1,245.92 499.797,245.689 500.342,245.044 C500.606,244.732 500.992,244.567 501.2,244.677 C501.649,244.916 502.288,244.254 502.559,243.269 C502.711,242.714 502.994,242.548 503.872,242.495 C504.532,242.455 505.451,242.073 506.11,241.565 C506.724,241.09 507.512,240.702 507.859,240.702 C508.397,240.702 508.492,240.855 508.492,241.727 C508.492,242.291 508.603,242.752 508.739,242.752 C508.875,242.752 508.988,242.56 508.99,242.325 C508.992,242.029 509.049,242.013 509.175,242.274 C509.275,242.48 509.604,242.83 509.907,243.05 C510.37,243.387 510.435,243.369 510.314,242.933 C510.122,242.242 510.865,241.873 511.345,242.423 C511.653,242.777 511.78,242.74 512.058,242.214 C512.244,241.862 512.357,241.294 512.309,240.95 C512.261,240.607 512.384,240.241 512.581,240.136 C512.867,239.984 512.944,239.069 512.96,235.626 C512.971,233.251 513.11,230.616 513.269,229.771 C513.547,228.296 513.603,228.224 514.714,227.945 C515.809,227.67 515.877,227.588 515.992,226.406 C516.059,225.719 516.129,224.389 516.147,223.449 C516.187,221.431 516.457,220.9 517.144,221.493 C517.976,222.211 519.517,222.013 520.175,221.104 C520.719,220.352 520.846,220.321 522.026,220.655 C522.722,220.853 523.244,221.123 523.184,221.256 C522.855,221.993 524.999,222.125 525.683,221.41 C526.235,220.832 527.942,220.753 529.375,221.238 C531.119,221.828 535.211,222.008 536.238,221.54 C536.953,221.213 537.243,221.207 537.464,221.512 C537.82,222.005 539.974,222.059 539.755,221.57 C539.412,220.802 542.655,221.535 543.252,222.361 C543.345,222.49 543.658,222.595 543.948,222.595 C544.765,222.595 545.069,223.268 545.069,225.078 C545.069,226.591 545.114,226.721 545.569,226.521 C546.346,226.18 547.515,226.675 547.825,227.476 C548.001,227.93 548.097,230.002 548.081,233.002 C548.065,235.817 548.161,238.014 548.311,238.313 C548.503,238.697 548.597,238.717 548.692,238.396 C548.845,237.875 549.752,237.845 550.259,238.344 C550.538,238.62 550.416,238.659 549.765,238.502 C548.93,238.302 548.919,238.314 549.44,238.82 C550.077,239.438 551.989,239.773 551.989,239.266 C551.989,239.076 552.154,239.008 552.356,239.115 C552.572,239.23 552.831,239.031 552.986,238.63 C553.131,238.256 553.352,238.037 553.477,238.144 C553.729,238.359 554.955,237.362 554.955,236.943 C554.955,236.797 554.815,236.685 554.646,236.694 C553.785,236.738 553.224,236.567 553.224,236.261 C553.224,236.073 553.485,235.919 553.804,235.919 C554.123,235.919 554.587,235.609 554.835,235.229 C555.253,234.591 555.362,233.819 555.524,230.35 C555.557,229.635 555.726,228.93 555.899,228.783 C556.275,228.461 556.521,225.046 556.313,223.04 C556.196,221.915 556.079,221.65 555.773,221.813 C555.352,222.036 555.353,222.029 556.048,220.144 C556.485,218.959 556.488,218.821 556.101,217.694 C555.876,217.037 555.623,216.027 555.539,215.448 C555.395,214.449 555.548,214.209 556.241,214.35 C556.338,214.37 556.482,213.889 556.563,213.281 C556.753,211.843 556.818,195.922 556.661,189.115 C556.594,186.202 556.631,181.945 556.744,179.654 C556.993,174.58 556.672,167.32 556.18,166.899 C555.896,166.657 555.9,166.463 556.202,165.683 C556.399,165.172 556.527,164.48 556.486,164.145 C556.36,163.112 557.321,162.675 560.072,162.513 C560.772,162.472 560.882,162.328 561.026,161.271 C561.199,159.994 561.3,159.933 563.031,160.058 C564.033,160.13 564.072,160.093 564.327,158.823 C564.472,158.102 564.591,157.178 564.592,156.769 C564.593,155.922 565.666,154.609 566.356,154.609 C566.728,154.609 566.817,154.349 566.817,153.27 C566.817,151.418 567.023,150.851 567.693,150.851 C568.009,150.851 568.553,150.701 568.902,150.518 C569.502,150.203 569.536,150.051 569.539,147.699 C569.54,146.332 569.611,144.631 569.696,143.919 C569.844,142.682 569.864,142.659 570.133,143.406 C570.345,143.992 570.627,144.189 571.255,144.189 C571.977,144.189 572.123,144.047 572.291,143.178 C572.423,142.494 572.389,142.081 572.185,141.902 C571.721,141.495 570.411,141.578 570.08,142.037 C569.849,142.356 569.783,142.078 569.783,140.788 C569.783,139.203 569.803,139.154 570.235,139.695 C570.533,140.068 571.123,140.26 571.965,140.26 C573.154,140.26 573.246,140.2 573.28,139.406 C573.301,138.936 573.328,138.36 573.342,138.125 C573.36,137.818 572.844,137.698 571.513,137.698 L569.66,137.698 L569.582,136.588 C569.508,135.527 569.83,135.095 570.154,135.819 C570.375,136.314 572.181,136.242 572.31,135.734 C572.37,135.499 572.349,134.922 572.263,134.452 C572.124,133.691 571.974,133.595 570.883,133.57 L569.66,133.542 L569.584,131.535 C569.451,128.015 569.484,127.961 571.756,127.961 C573.486,127.961 573.753,128.045 573.993,128.665 C574.366,129.629 575.273,129.41 575.494,128.303 C575.588,127.833 575.678,125.45 575.694,123.008 C575.722,118.558 575.928,117.187 576.458,117.92 C576.624,118.149 576.746,120.281 576.777,123.481 C576.83,129.023 576.896,129.311 578.124,129.323 C578.504,129.326 578.68,129.533 578.68,129.975 C578.68,130.652 578.225,131.036 577.424,131.036 C576.944,131.036 576.851,131.337 576.946,132.573 C577.027,133.629 577.464,134.155 578.165,134.042 C578.661,133.963 578.804,134.09 578.804,134.612 C578.804,135.131 578.563,135.351 577.754,135.572 C576.885,135.81 576.703,135.994 576.703,136.64 C576.703,137.822 577.519,138.704 578.168,138.224 C578.619,137.89 578.717,137.959 578.937,138.757 C579.075,139.26 579.463,140.124 579.799,140.676 C580.592,141.978 580.572,142.581 579.731,142.714 C578.857,142.853 578.678,144.118 579.384,145.162 C579.714,145.651 579.939,146.617 580.055,148.045 C580.173,149.506 580.359,150.289 580.635,150.493 C580.859,150.658 581.925,150.963 583.005,151.171 C584.084,151.379 585.082,151.707 585.222,151.901 C585.365,152.099 585.453,153.484 585.423,155.054 C585.344,159.102 585.393,159.271 586.704,159.543 C587.908,159.793 588.073,160 588.304,161.564 C588.456,162.593 588.469,162.6 590.18,162.64 C591.127,162.662 592.092,162.799 592.323,162.945 C592.555,163.091 592.881,163.093 593.05,162.949 C593.525,162.543 599.019,162.466 599.363,162.861 C599.528,163.051 599.884,163.11 600.153,162.992 C600.84,162.691 609.1,162.58 609.23,162.87 C609.289,163.001 609.584,163.019 609.887,162.91 C610.19,162.801 610.783,162.681 611.204,162.642 C611.625,162.603 612.099,162.461 612.257,162.326 C612.414,162.191 612.737,162.161 612.974,162.258 C613.822,162.608 616.91,162.558 619.418,162.154 C621.637,161.797 622.048,161.812 622.551,162.267 C622.869,162.555 623.165,162.653 623.209,162.486 C623.254,162.318 624.569,162.074 626.132,161.943 C627.695,161.812 629.041,161.651 629.122,161.585 C629.203,161.519 630.449,161.311 631.889,161.122 C633.664,160.89 634.81,160.556 635.445,160.086 C635.96,159.704 636.541,159.392 636.736,159.392 C636.931,159.392 637.287,159.146 637.527,158.846 C637.767,158.546 638.082,158.401 638.226,158.525 C638.411,158.683 638.489,210.254 638.489,332.794 L638.489,506.838 L318.191,506.838 L-2.10715,506.838 L-2.10715,369.557 M379.454,249.845 C379.49,248.109 379.603,246.533 379.705,246.343 C379.807,246.153 379.907,245.283 379.927,244.409 C379.96,242.984 379.914,242.839 379.476,242.997 C379.208,243.094 378.982,243.424 378.974,243.731 C378.778,251.165 378.799,253.001 379.081,253.001 C379.298,253.001 379.407,252.079 379.454,249.845 M497.37,244.802 C497.37,244.614 497.203,244.46 496.999,244.46 C496.795,244.46 496.629,244.614 496.629,244.802 C496.629,244.989 496.795,245.143 496.999,245.143 C497.203,245.143 497.37,244.989 497.37,244.802 M505.066,244.118 C505.767,244.118 506.152,243.665 505.911,243.125 C505.832,242.949 505.24,243.05 504.544,243.358 C503.556,243.795 503.37,243.992 503.595,244.366 C503.788,244.688 503.953,244.721 504.131,244.474 C504.273,244.279 504.694,244.118 505.066,244.118 M37.1887,239.506 C37.1887,239.224 37.0082,238.994 36.7877,238.994 C36.4593,238.994 36.4424,239.086 36.6944,239.506 C37.0818,240.151 37.1887,240.151 37.1887,239.506 M2.65036,238.51 C2.68433,238.337 2.57312,238.133 2.40323,238.054 C2.23331,237.976 2.0943,238.168 2.0943,238.481 C2.0943,239.06 2.53735,239.082 2.65036,238.51 M35.7058,237.627 C35.7058,237.439 35.5946,237.286 35.4587,237.286 C35.3227,237.286 35.2115,237.439 35.2115,237.627 C35.2115,237.815 35.3227,237.969 35.4587,237.969 C35.5946,237.969 35.7058,237.815 35.7058,237.627 M33.1108,233.357 C33.1108,233.169 32.6938,232.967 32.184,232.909 C31.3149,232.81 31.0276,233.096 31.4337,233.658 C31.6911,234.013 33.1108,233.759 33.1108,233.357 M37.0914,232.563 C37.1174,231.847 37.0159,231.478 36.7937,231.478 C36.4084,231.478 36.0685,232.957 36.323,233.526 C36.6266,234.205 37.051,233.673 37.0914,232.563 M34.7146,233.019 C34.8824,232.74 34.9493,232.258 34.8633,231.948 C34.7201,231.432 34.6657,231.436 34.2178,231.997 C33.9488,232.333 33.7287,232.815 33.7287,233.068 C33.7287,233.683 34.3344,233.653 34.7146,233.019 M38.4244,232.482 C38.4244,232.306 38.2576,232.161 38.0537,232.161 C37.6715,232.161 37.5627,232.564 37.841,232.949 C38.0385,233.222 38.4244,232.913 38.4244,232.482 M32.6738,230.111 C32.7568,230.111 33.0286,230.366 33.2777,230.678 C33.9127,231.472 34.9644,230.817 34.9644,229.626 C34.9644,228.538 34.6196,228.265 33.9192,228.799 C33.6105,229.034 33.1633,229.185 32.9254,229.135 C32.6876,229.084 32.493,229.196 32.493,229.383 C32.493,229.569 32.2555,229.771 31.9652,229.831 C31.6749,229.891 31.2723,230.286 31.0704,230.708 C30.7214,231.438 30.7442,231.5 31.5364,231.963 L32.3694,232.449 L32.4461,231.28 C32.4883,230.637 32.5907,230.111 32.6738,230.111 M68.8231,231.839 C68.8231,231.663 68.7118,231.423 68.5759,231.307 C68.44,231.191 68.3288,231.335 68.3288,231.628 C68.3288,231.921 68.44,232.161 68.5759,232.161 C68.7118,232.161 68.8231,232.016 68.8231,231.839 M68.8231,229.428 C68.8231,229.052 68.7118,228.745 68.5759,228.745 C68.44,228.745 68.3288,229.052 68.3288,229.428 C68.3288,229.804 68.44,230.111 68.5759,230.111 C68.7118,230.111 68.8231,229.804 68.8231,229.428 M36.7562,229.252 C36.6651,228.756 36.1353,228.843 36.0069,229.375 C35.9347,229.674 36.0568,229.792 36.357,229.712 C36.6105,229.645 36.7902,229.438 36.7562,229.252 M68.9274,226.167 C69.1021,225.204 68.9151,224.526 68.5588,224.83 C68.2648,225.082 68.2561,227.036 68.5491,227.036 C68.6703,227.036 68.8405,226.645 68.9274,226.167 M594.003,212.346 C594.003,212.158 593.836,212.004 593.632,212.004 C593.429,212.004 593.262,212.158 593.262,212.346 C593.262,212.534 593.429,212.688 593.632,212.688 C593.836,212.688 594.003,212.534 594.003,212.346 M591.82,211.015 C591.865,210.847 593.126,210.621 594.621,210.513 C596.116,210.405 598.118,210.078 599.07,209.786 C600.021,209.495 602.023,209.197 603.518,209.125 C605.013,209.052 606.409,208.897 606.621,208.78 C606.832,208.662 607.199,208.111 607.437,207.553 C607.826,206.645 607.88,205.127 607.968,192.819 C608.045,182.049 608.135,179.037 608.387,178.816 C608.723,178.521 609.448,178.458 613.197,178.392 C614.442,178.371 615.55,178.231 615.658,178.082 C615.766,177.933 615.829,176.469 615.797,174.828 C615.758,172.815 615.842,171.668 616.055,171.302 C616.269,170.932 617.148,170.633 618.812,170.363 C620.156,170.145 621.341,169.893 621.446,169.804 C621.817,169.486 621.385,168.352 620.736,167.939 C620.353,167.696 619.117,167.533 617.791,167.549 C615.927,167.573 615.505,167.485 615.505,167.072 C615.505,166.408 615.345,166.434 614.541,167.226 C614.106,167.653 613.75,167.781 613.526,167.59 C613.336,167.428 613.082,167.379 612.961,167.482 C612.767,167.648 611.647,167.651 606.36,167.501 C605.613,167.48 604.612,167.485 604.136,167.513 C603.66,167.541 602.715,167.565 602.035,167.565 C601.356,167.566 600.077,167.593 599.193,167.625 C598.31,167.658 597.086,167.661 596.475,167.632 C594.945,167.561 591.179,167.827 589.65,168.113 L588.387,168.35 L588.229,170.926 C588.027,174.228 588.022,208.503 588.224,209.893 C588.355,210.799 588.498,210.961 589.274,211.074 C591.038,211.333 591.739,211.317 591.82,211.015 M572.212,147.308 C572.317,146.037 571.969,145.548 571.307,146.038 C570.873,146.359 570.733,147.4 570.991,148.398 C571.006,148.458 571.269,148.458 571.575,148.398 C571.98,148.318 572.153,148.022 572.212,147.308 M573.243,143.355 C573.243,142.803 573.132,142.255 572.996,142.139 C572.849,142.014 572.749,142.42 572.749,143.144 C572.749,143.813 572.86,144.36 572.996,144.36 C573.132,144.36 573.243,143.908 573.243,143.355 M575.016,142.428 C575.632,141.657 575.584,140.724 574.916,140.482 C574.186,140.218 574.012,140.543 574.163,141.883 C574.306,143.153 574.392,143.208 575.016,142.428 M577.939,141.078 C577.939,140.816 577.716,140.602 577.445,140.602 C576.979,140.602 576.773,141.267 577.098,141.717 C577.339,142.05 577.939,141.593 577.939,141.078 M575.418,137.8 C575.581,137.575 575.715,137.037 575.715,136.605 C575.715,135.827 575.665,135.796 574.183,135.665 C573.952,135.644 573.684,135.517 573.586,135.382 C573.274,134.95 572.749,135.117 572.749,135.648 C572.749,135.935 572.969,136.161 573.251,136.161 C573.705,136.161 573.82,136.375 574.124,137.783 C574.241,138.327 575.03,138.337 575.418,137.8 M575.166,133.684 C575.413,133.267 575.553,132.323 575.496,131.463 C575.48,131.225 575.139,131.036 574.726,131.036 C574.031,131.036 573.985,131.118 573.985,132.346 C573.985,133.066 574.059,133.758 574.149,133.883 C574.41,134.243 574.89,134.149 575.166,133.684 M573.49,131.176 C573.49,129.33 573.075,129.063 570.957,129.547 C570.186,129.723 570.03,129.897 570.03,130.579 C570.03,131.591 570.709,132.004 572.316,131.97 C573.363,131.947 573.49,131.861 573.49,131.176 M112.32,122.324 C112.32,122.065 112.209,121.757 112.073,121.641 C111.932,121.521 111.826,121.815 111.826,122.324 C111.826,122.834 111.932,123.128 112.073,123.008 C112.209,122.891 112.32,122.584 112.32,122.324 M114.792,121.088 C114.792,120.9 114.681,120.842 114.545,120.958 C114.409,121.074 114.297,121.323 114.297,121.51 C114.297,121.698 114.409,121.757 114.545,121.641 C114.681,121.525 114.792,121.276 114.792,121.088 M115.61,115.855 C115.892,115.559 115.961,115.304 115.795,115.162 C115.397,114.822 115.482,113.91 115.956,113.431 C116.317,113.066 116.33,112.921 116.044,112.445 C115.735,111.93 115.672,111.934 115.228,112.489 C114.769,113.064 114.733,113.064 114.422,112.477 C114.203,112.062 114.042,111.987 113.926,112.247 C113.832,112.458 113.952,112.932 114.193,113.3 C114.529,113.814 114.564,114.064 114.341,114.372 C113.956,114.904 113.974,115.166 114.439,115.809 C114.907,116.456 115.032,116.46 115.61,115.855 M117.263,115.491 C117.263,115.21 117.096,114.979 116.892,114.979 C116.689,114.979 116.522,115.21 116.522,115.491 C116.522,115.773 116.689,116.004 116.892,116.004 C117.096,116.004 117.263,115.773 117.263,115.491 M119.858,112.929 C119.66,112.486 118.993,112.486 118.993,112.929 C118.993,113.117 119.222,113.271 119.502,113.271 C119.782,113.271 119.942,113.117 119.858,112.929 M116.413,111.188 C116.706,110.533 115.99,109.171 115.353,109.171 C115.022,109.171 114.83,109.321 114.915,109.513 C114.999,109.701 114.95,109.854 114.806,109.854 C114.392,109.854 114.62,110.668 115.162,111.123 C115.785,111.646 116.198,111.668 116.413,111.188 M116.194,108.41 C117.343,108.589 117.754,108.248 117.746,107.121 C117.743,106.72 117.688,106.739 117.491,107.207 C117.172,107.964 116.623,107.977 116.416,107.234 C116.219,106.523 116.716,106.065 117.42,106.309 C117.712,106.41 118.018,106.344 118.1,106.161 C118.181,105.977 117.943,105.722 117.57,105.594 C117.198,105.465 116.697,105.116 116.458,104.819 C116.052,104.313 116.051,104.236 116.434,103.649 C116.76,103.153 116.773,103.023 116.498,103.026 C115.724,103.037 115.051,103.457 115.213,103.829 C115.305,104.043 115.19,104.003 114.957,103.742 C114.369,103.082 114.253,103.367 114.129,105.767 C114.021,107.871 114.367,109.211 114.848,108.547 C114.972,108.376 115.577,108.314 116.194,108.41 M118.375,103.705 C118.18,103.267 118.005,103.267 118.005,103.705 C118.005,103.893 118.122,104.047 118.266,104.047 C118.41,104.047 118.459,103.893 118.375,103.705 M119.621,101.974 C119.849,101.465 119.585,101.189 119.112,101.44 C118.893,101.555 118.784,101.805 118.869,101.994 C119.069,102.442 119.416,102.433 119.621,101.974 M114.98,99.6019 C114.806,99.2177 114.629,99.0846 114.577,99.2998 C114.526,99.5112 114.637,99.8179 114.823,99.9812 C115.31,100.407 115.326,100.368 114.98,99.6019 M116.275,98.3898 C116.275,97.6552 115.776,97.4434 115.145,97.9103 C114.613,98.3032 114.596,98.3859 114.963,98.7574 C115.453,99.2522 116.275,99.0218 116.275,98.3898 M117.757,98.5804 C118.057,98.3125 118.022,98.2482 117.572,98.2439 C117.266,98.2411 117.016,98.3925 117.016,98.5804 C117.016,99.0084 117.278,99.0084 117.757,98.5804 M499.347,242.566 C499.347,242.042 499.431,241.752 499.533,241.922 C499.635,242.092 499.807,242.324 499.915,242.436 C500.023,242.549 499.94,242.839 499.73,243.08 C499.4,243.458 499.347,243.387 499.347,242.566 M551.989,236.24 C551.989,236.041 551.878,235.974 551.742,236.09 C551.606,236.206 551.495,236.155 551.495,235.976 C551.495,235.797 551.661,235.562 551.865,235.454 C552.117,235.32 552.236,235.472 552.236,235.93 C552.236,236.3 552.18,236.602 552.112,236.602 C552.044,236.602 551.989,236.439 551.989,236.24 M225.759,235.15 C225.759,235.103 225.594,233.769 225.392,232.184 C225.022,229.282 225.034,228.849 225.471,229.222 C225.784,229.49 226.578,234.444 226.379,234.89 C226.245,235.189 225.76,235.392 225.759,235.15 M548.665,231.848 C548.586,231.671 548.626,231.435 548.755,231.325 C548.884,231.215 549.054,231.271 549.134,231.449 C549.213,231.626 549.173,231.862 549.044,231.972 C548.915,232.082 548.745,232.026 548.665,231.848 M548.677,229.86 C548.407,229.487 548.523,229.115 549.023,228.745 C549.438,228.438 549.517,228.485 549.517,229.038 C549.517,229.696 548.956,230.245 548.677,229.86 M20.3829,226.504 C20.3829,226.211 20.4941,226.066 20.6301,226.182 C20.9499,226.456 20.9499,227.036 20.6301,227.036 C20.4941,227.036 20.3829,226.797 20.3829,226.504 M25.8201,226.032 C25.8201,225.855 25.9313,225.615 26.0672,225.499 C26.2032,225.383 26.3144,225.528 26.3144,225.82 C26.3144,226.113 26.2032,226.353 26.0672,226.353 C25.9313,226.353 25.8201,226.208 25.8201,226.032 M24.5922,224.23 C24.5999,223.801 25.3258,222.26 25.3258,222.673 C25.3258,222.787 25.39,223.112 25.4685,223.395 C25.5549,223.706 25.4085,224.059 25.0978,224.289 C24.7015,224.582 24.5862,224.569 24.5922,224.23 M22.1208,222.138 C22.1159,221.749 22.3949,221.364 22.8543,221.124 C23.2621,220.911 23.5958,220.617 23.5958,220.47 C23.5958,220.324 23.7626,220.204 23.9665,220.204 C24.5443,220.204 24.4019,221.12 23.7811,221.396 C23.4753,221.533 23.1291,221.622 23.0119,221.594 C22.8947,221.567 22.648,221.819 22.4637,222.155 C22.143,222.74 22.1283,222.739 22.1208,222.138 M31.0101,219.926 C31.0101,219.747 31.2925,219.525 31.6377,219.434 C32.0338,219.329 32.2318,219.409 32.1745,219.651 C32.0616,220.125 31.0101,220.373 31.0101,219.926 M22.3601,219.028 C22.3601,218.757 22.4596,218.451 22.5813,218.347 C22.8357,218.129 23.1425,219.008 22.9197,219.316 C22.6545,219.683 22.3601,219.531 22.3601,219.028 M24.5844,218.983 C24.5844,218.665 24.7525,218.49 24.9964,218.556 C25.6164,218.722 25.7015,219.52 25.0992,219.52 C24.7957,219.52 24.5844,219.3 24.5844,218.983 M37.6629,216.36 C37.6518,216.313 37.6204,215.852 37.593,215.335 C37.5289,214.129 38.2312,214.05 38.6171,215.221 C38.8362,215.886 38.8159,216.085 38.513,216.246 C38.124,216.452 37.698,216.51 37.6629,216.36 M309.109,206.367 C309.106,205.616 309.155,205.268 309.216,205.595 C309.278,205.921 309.281,206.536 309.221,206.961 C309.162,207.386 309.112,207.119 309.109,206.367 M213.989,204.16 C214.08,202.664 214.217,197.783 214.294,193.313 C214.447,184.407 214.879,181.526 214.922,189.124 C214.953,194.816 214.946,196.315 214.871,199.449 C214.838,200.811 214.892,202.818 214.991,203.908 C215.18,205.986 214.942,206.88 214.201,206.88 C213.882,206.88 213.85,206.466 213.989,204.16 M41.9039,185.214 C41.8932,184.854 41.9516,184.652 42.0337,184.766 C42.1159,184.879 42.1246,185.174 42.0532,185.421 C41.9743,185.693 41.9157,185.612 41.9039,185.214 M180.038,165.863 C180.038,165.253 180.141,164.906 180.285,165.029 C180.607,165.304 180.607,166.908 180.285,166.908 C180.149,166.908 180.038,166.438 180.038,165.863 M111.085,113.556 C111.085,112.585 111.125,111.854 111.175,111.933 C111.386,112.263 111.499,115.321 111.301,115.321 C111.182,115.321 111.085,114.526 111.085,113.556 M111.018,111.015 C110.919,110.878 110.85,109.907 110.866,108.858 L110.895,106.951 L111.118,108.81 C111.352,110.755 111.321,111.434 111.018,111.015 M123.234,109.854 C123.234,109.385 123.29,109.193 123.358,109.427 C123.427,109.662 123.427,110.047 123.358,110.281 C123.29,110.516 123.234,110.324 123.234,109.854 M123.195,107.996 C123.195,107.396 123.343,107.307 123.555,107.781 C123.633,107.956 123.584,108.196 123.446,108.314 C123.308,108.432 123.195,108.289 123.195,107.996 M110.558,103.449 C110.541,102.744 110.495,101.514 110.457,100.716 C110.418,99.917 110.488,99.2636 110.612,99.2636 C110.736,99.2636 110.839,100.148 110.841,101.228 C110.843,102.308 110.911,103.538 110.993,103.961 C111.083,104.422 111.032,104.73 110.866,104.73 C110.715,104.73 110.576,104.153 110.558,103.449 M111.583,96.6361 C111.585,95.4494 111.653,95.1354 111.826,95.5056 C112.14,96.1778 112.14,97.7994 111.826,98.0679 C111.674,98.1976 111.58,97.6456 111.583,96.6361 M122.226,97.0714 C122.215,96.7113 122.273,96.5095 122.355,96.623 C122.438,96.7366 122.446,97.0312 122.375,97.2778 C122.296,97.5504 122.237,97.4694 122.226,97.0714 M385.661,-13.3062 C385.661,-14.2599 386.26,-14.4839 386.5,-13.6199 C386.75,-12.7169 386.672,-12.4521 386.155,-12.4521 C385.793,-12.4521 385.661,-12.6798 385.661,-13.3062 Z" style="stroke:none;fill-rule:nonzero;fill:#200c00;fill-opacity:1;"/>
        </g>
    </g>
</svg>
